<svg width="65" height="42" viewBox="0 0 65 42" fill="none" xmlns="http://www.w3.org/2000/svg">
<path d="M13.4133 3.56962C13.4133 3.49367 13.337 3.41772 13.2608 3.41772C13.1846 3.41772 13.1084 3.49367 13.0322 3.56962C12.6512 3.87342 12.2701 4.25317 11.8891 4.63291C11.3556 5.24051 10.8983 6 10.5935 6.83545L11.127 7.13924C11.508 6.6076 12.7274 4.63291 13.337 3.64557C13.4133 3.64557 13.4133 3.56962 13.4133 3.56962Z" fill="#64513D"/>
<path d="M9.06934 8.65809C9.6028 9.41758 10.5173 11.0125 11.4318 12.9872C11.5842 12.7594 12.0415 12.0758 12.2701 11.9239C11.508 10.329 10.1363 8.80999 9.6028 8.20239L9.06934 8.65809Z" fill="#64513D"/>
<path d="M51.8988 26.2026L52.4323 26.5824C52.5085 26.6583 52.5847 26.6583 52.5847 26.6583C52.6609 26.6583 52.7371 26.5824 52.7371 26.5064C52.7371 26.4305 52.7372 26.4305 52.6609 26.3545C51.1368 24.9875 49.5364 23.3166 48.0122 21.7216C46.7928 20.4305 45.5735 19.1393 44.5065 17.7723C44.4303 17.6963 44.3541 17.6204 44.2779 17.6204C44.1255 17.6204 44.1255 17.6963 44.1255 17.7723C44.1255 17.9242 44.2017 18.0761 44.5065 18.5318C45.2686 19.8229 46.2594 21.19 47.4787 22.4811C48.7743 23.7723 50.2984 25.0634 51.8988 26.2026Z" fill="#64513D"/>
<path d="M21.2628 7.29112C21.5676 7.13922 21.7962 6.91137 21.7962 6.60757C21.7962 6.53162 21.72 6.37973 21.6438 6.30378C21.4152 6.15188 21.1104 6.07593 20.8817 6.07593C20.3483 6.07593 20.1196 6.53162 20.1196 6.98732C20.1196 7.29112 20.272 7.51897 20.5769 7.51897C20.8055 7.51897 21.0341 7.44302 21.2628 7.29112Z" fill="#64513D"/>
<path d="M31.4745 2.96191C30.7886 2.96191 30.6362 3.64546 30.6362 3.94926C30.6362 4.25305 30.7124 4.55685 31.0935 4.55685C31.3983 4.55685 31.7794 4.329 32.0842 4.10115C32.389 3.87331 32.5415 3.72141 32.5415 3.49356C32.5415 3.34166 32.389 3.18976 32.1604 3.03786C31.9318 3.03786 31.7032 2.96191 31.4745 2.96191Z" fill="#64513D"/>
<path d="M24.7682 10.6329C24.4633 10.6329 24.1585 10.557 23.7774 10.481C23.4726 10.4051 23.1678 10.3291 22.7105 10.3291C21.8722 10.3291 21.0339 10.6329 20.4242 11.2405C19.3573 12.3038 19.2811 13.3671 19.2049 14.4304C19.1287 15.7215 18.9 16.1013 18.1379 17.0886C17.5283 17.8481 16.7662 18.9114 16.1565 20.0506C16.3851 20.1266 16.9948 20.5063 17.2234 20.5823C17.9093 19.519 18.9 18.2279 19.5859 17.1646C20.1956 16.2532 20.4242 15.8734 20.4242 14.6582C20.4242 14.4304 20.4242 14.2785 20.4242 14.0506C20.5004 13.443 20.6528 12.7595 21.2625 12.2279C21.7198 11.7722 22.3295 11.5443 23.0153 11.5443C23.625 11.5443 24.0061 11.6962 24.5395 11.6962C24.9206 11.6962 25.2254 11.6203 25.454 11.5443L25.6827 11.4684L25.2254 12.6076L26.3686 13.0633C25.6827 13.519 24.0823 15.4177 24.0823 17.6962C24.0823 18.5317 24.2347 19.2911 24.3871 19.8987C24.3871 19.9747 24.4633 20.0506 24.5395 20.0506C24.6157 20.0506 24.6919 19.9747 24.6919 19.8987V19.6709C24.6919 18.9874 24.7682 17.9241 25.073 16.9367C25.454 15.1899 26.6734 13.6709 27.969 12.9114L26.2161 12.1519L26.9782 10.2532L26.1399 10.4051C25.6065 10.557 25.2254 10.6329 24.7682 10.6329Z" fill="#64513D"/>
<path d="M3.65796 11.8482C3.65796 11.9241 3.73417 12.0001 3.81038 12.0001C3.88659 12.0001 3.9628 12.0001 4.11522 11.9241L7.92569 10.633L7.77327 10.0254C6.24908 10.2532 5.10594 10.7089 3.81038 11.6963C3.73417 11.7722 3.65796 11.8482 3.65796 11.8482Z" fill="#64513D"/>
<path d="M53.8039 10.2531C55.0233 9.72144 57.2334 8.81005 58.5289 8.35435V7.13916C55.9378 8.05055 51.4414 9.94929 48.3931 11.6202C48.4693 11.6961 49.0027 12.4556 49.079 12.5316C50.3745 11.9999 51.5177 11.6202 52.5846 11.6202C54.0326 11.6202 55.2519 11.6202 57.3096 11.1645V10.2531C56.1664 10.4809 54.9471 10.7088 54.185 10.7088C53.7277 10.7088 53.5753 10.6328 53.5753 10.4809C53.5753 10.405 53.6515 10.329 53.8039 10.2531Z" fill="#64513D"/>
<path d="M40.0099 5.39241C38.943 4.40506 38.1809 3.26582 37.6474 2.73418C36.5043 1.51899 35.0563 0 32.6938 0C30.4075 0 28.8834 1.51899 28.3499 2.81013C28.1975 3.18987 28.0451 3.64557 27.9688 3.79747C27.7402 4.17722 26.7495 5.92405 26.2922 6.60759H28.1975L27.283 8.35443C28.3499 8.12658 29.112 7.97468 30.1789 7.97468C31.0934 7.97468 31.7793 8.20253 32.0842 8.73418C32.6176 9.79747 32.6176 13.0633 33.5321 15.4937C34.3704 17.7722 36.4281 20.0506 38.7906 21.7215H38.8668C38.943 21.7215 39.0192 21.6456 39.0192 21.5696C39.0192 21.4937 39.0192 21.4937 38.943 21.4177C37.0378 19.519 35.4374 17.3165 34.5991 14.962C33.7608 12.6835 33.9132 9.49367 33.1511 8.05063C32.6938 7.13924 31.6269 6.83544 30.7124 6.83544C29.9503 6.83544 29.2644 6.98734 28.8834 7.06329L29.7217 5.6962H28.2737C28.5785 5.16456 28.8834 4.70886 29.0358 4.40506C29.1882 4.17722 29.1882 3.87342 29.4168 3.41772C29.9503 2.05063 31.1696 1.21519 32.6938 1.21519C34.5991 1.21519 35.7422 2.43038 36.8853 3.72152C37.4188 4.32911 38.2571 5.46835 39.2478 6.37975C39.9337 6.98734 41.2293 7.67089 43.1345 9.72152C44.2777 10.8608 45.5732 12.3797 47.0212 14.4304C51.9748 21.7215 55.2518 28.1013 57.0808 33.1139C51.8224 29.6203 47.2498 26.2785 43.5918 22.1772C41.0007 19.2152 38.7144 15.8734 36.8091 11.5443C36.6567 11.2405 36.5805 11.0127 36.4281 10.7089C36.3519 10.557 36.3519 10.557 36.2757 10.557C36.1995 10.557 36.1233 10.6329 36.1233 10.7089C36.1233 10.7848 36.1995 11.0886 36.2757 11.5443C37.3426 16.0253 40.2386 20.0506 43.2869 23.3924C46.3353 26.7342 49.8409 29.5443 52.7369 31.6709L54.947 38.0506C55.0232 38.2025 55.0232 38.3544 55.0232 38.5063C55.0232 38.5823 55.0232 38.7342 54.947 38.8101C54.8708 38.8861 54.7946 38.8861 54.6421 38.8861H53.9563C53.6514 38.8861 53.5752 38.8101 53.4228 38.7342C53.3466 38.6582 53.2704 38.5063 53.1942 38.3544C52.9655 37.7468 51.8224 34.4051 51.5938 33.7215C51.5175 33.5696 51.4413 33.5696 51.3651 33.5696C51.2889 33.5696 51.2127 33.6456 51.2127 33.7215C51.2127 33.7975 51.2127 33.8734 51.2889 34.1772C51.5938 35.6962 51.9748 37.443 52.051 38.0506C52.1272 38.3544 52.2034 38.6582 52.2034 38.8101C52.2034 38.962 52.1272 39.1139 51.9748 39.2658L51.2889 39.9494C51.2127 40.1772 51.0603 40.2532 50.9841 40.2532C50.8317 40.2532 50.6793 40.1772 50.603 39.8734C49.8409 36.2278 48.6216 31.6709 48.3168 30.4557C48.2405 30.1519 48.1643 30 48.0119 30C47.8595 30 47.7833 30.076 47.7833 30.2278C47.7833 30.3038 47.7833 30.4557 47.7833 30.5316C47.9357 31.8228 48.6978 36.5316 49.5361 40.8608C49.6885 41.6203 49.9934 42 50.603 42C50.9079 42 51.1365 41.9241 51.4413 41.6203C51.8986 41.1646 51.9748 41.0886 52.5083 40.557C52.8893 40.1772 53.118 40.0253 53.7276 40.0253H55.2518C55.6329 40.0253 55.7853 39.9494 56.0139 39.7975C56.1663 39.6456 56.3187 39.4177 56.3187 39.1139C56.3187 38.8101 56.2425 38.5063 56.0901 38.2025C55.7091 37.2152 54.4897 33.6456 54.1087 32.6582C55.4042 33.6456 57.3095 34.8608 58.0716 34.8608C58.3002 34.8608 58.4526 34.7848 58.4526 34.3291C58.4526 32.4304 55.328 24.6835 48.0881 13.8987C44.3539 8.27848 40.9244 6.3038 40.0099 5.39241Z" fill="#64513D"/>
<path d="M50.0696 1.21509C49.3837 2.50623 46.8688 6.53154 45.4971 8.12648L46.2592 8.96192C47.0213 8.12648 47.7834 6.75939 48.6979 5.3923H48.8503C48.8503 5.46825 48.8503 5.5442 48.8503 5.62015C48.8503 6.75939 49.46 7.67078 50.9079 7.67078C51.8225 7.67078 53.2704 7.21509 54.566 6.75939C55.7091 6.37964 56.6999 5.9999 57.2333 5.848V4.63281C56.6236 4.78471 55.4805 5.2404 54.2612 5.6961C52.9656 6.1518 51.7462 6.53154 50.9841 6.53154C50.1458 6.53154 49.9172 6.07585 49.9172 5.46825C49.9172 4.17711 50.7555 2.27838 51.2128 1.21509H50.0696Z" fill="#64513D"/>
<path d="M10.7452 37.2152C10.0593 37.595 9.22097 37.8228 8.45887 37.8228C8.15403 37.8228 8.00161 37.8988 7.8492 37.9747C7.69678 38.1266 7.69678 38.2785 7.69678 38.5064V38.8861H7.9254C9.29717 38.8861 10.5927 38.6583 11.9645 37.595L16.5371 34.0254C17.223 34.7849 18.8233 35.7722 20.8048 35.7722C21.8717 35.7722 22.6338 35.4684 23.6245 35.2406C24.3866 35.0127 25.1487 34.8608 26.8253 34.8608H31.7027C34.2176 34.8608 35.3608 34.3292 36.7326 33.5697C39.6285 31.9747 42.0672 29.2406 43.439 26.1266C43.0579 25.8988 42.7531 25.6709 42.4483 25.519C40.9241 28.7849 38.5616 31.1393 36.1229 32.5064C34.9797 33.1899 33.9128 33.5697 31.7027 33.5697H26.9015C25.1487 33.5697 24.0818 33.7975 23.2435 34.0254C22.329 34.2532 21.7193 34.4811 20.8048 34.4811C19.433 34.4811 18.2137 33.7975 17.604 33.1899L18.7471 32.2785L18.2137 31.519C17.9088 31.7469 13.8697 34.7089 13.0314 35.3925H12.9552C12.9552 35.1646 12.9552 35.0127 12.9552 34.7849C12.9552 32.5064 11.8883 31.9747 10.2879 31.3671L9.14476 32.0507C11.3548 32.8102 11.8883 33.3418 11.8883 35.0127C11.8883 36.3039 11.431 36.7596 10.7452 37.2152Z" fill="#64513D"/>
<path d="M4.8774 8.50633C2.36249 8.50633 1.29556 9.72152 1.29556 10.557C0.533466 10.8608 0.0762094 11.6962 0.0762094 12.4557C0.0762094 13.9747 1.21935 15.1139 2.66733 15.1139C3.12459 15.1139 3.65805 14.8861 4.0391 14.6582C4.26773 14.7342 4.64877 14.8101 4.95361 14.8101C5.6395 14.8101 6.4778 14.5823 7.01127 13.7468C7.08748 13.7468 7.16368 13.7468 7.23989 13.7468C8.15441 13.7468 8.9165 13.1392 9.37376 12.3797C9.44997 12.1519 9.52618 12 9.52618 11.9241C9.52618 11.7722 9.44997 11.6962 9.37376 11.6962C9.22134 11.6962 9.22134 11.8481 8.9165 12.0759C8.30683 12.6076 7.46852 12.7595 6.55401 12.7595C6.09675 13.443 5.56329 13.7468 4.95361 13.7468C4.49636 13.7468 4.11531 13.5949 3.73426 13.3671C3.42942 13.6709 3.04838 13.8228 2.66733 13.8228C1.82903 13.8228 1.29556 13.2911 1.29556 12.4557C1.29556 11.8481 1.67661 11.3924 2.21007 11.1646C2.28628 10.1772 3.42942 9.49367 4.72498 9.49367C4.8774 9.49367 5.10603 9.49367 5.25845 9.49367C5.48708 9.18987 5.94433 8.81013 6.63022 8.73418C6.78264 8.73418 6.85885 8.73418 6.93506 8.65823C7.01127 8.58228 7.08748 8.50633 7.08748 8.43038C7.08748 8.35443 7.08748 8.27848 7.01127 8.20253C6.93506 8.12658 6.78264 8.12658 6.70643 8.12658C6.02054 7.97468 5.25845 7.59494 4.8774 6.60759C3.35321 6.60759 2.21007 5.39241 2.21007 3.94937V3.87342C1.6004 3.72152 1.21935 3.18987 1.21935 2.58228C1.21935 1.82279 1.82903 1.21519 2.59112 1.21519C3.04838 1.21519 3.42942 1.44304 3.73426 1.74684C3.96289 1.67089 4.19152 1.67089 4.42015 1.67089C5.56329 1.67089 6.78264 2.43038 7.08748 3.79747C8.61166 3.94937 8.9165 5.16456 8.99271 5.6962C9.06892 6 9.06892 6.1519 9.29755 6.1519C9.44997 6.1519 9.52618 5.92405 9.60239 5.6962C9.6786 5.16456 9.90722 4.78481 10.2883 4.40506C10.2883 3.03798 11.279 1.89873 12.727 1.89873C12.9556 1.51899 13.4129 1.21519 13.9463 1.21519C14.7084 1.21519 15.3181 1.82279 15.3181 2.58228C15.3181 3.03797 15.0895 3.41772 14.7846 3.72152C14.8608 4.02532 14.937 4.25316 14.937 4.48101C14.937 5.31646 14.4036 5.92405 13.4891 6.3038C13.3366 6.83544 13.108 7.29114 12.8032 7.67089C12.1935 8.27848 11.5838 8.27848 11.5838 8.50633C11.5838 8.65823 11.66 8.73418 11.9649 8.73418C13.108 8.73418 14.2512 8.12658 14.4036 7.06329C15.3181 6.53165 16.004 5.46835 16.004 4.55696C16.004 4.32911 16.004 4.10127 15.9278 3.94937C16.2326 3.64557 16.6137 3.18987 16.6137 2.43038C16.6137 1.82278 16.3088 1.13924 15.8516 0.683544C15.3181 0.303797 14.7084 0 14.0225 0C12.9556 0 12.3459 0.531646 11.9649 1.06329C10.8217 1.06329 9.37376 2.27848 9.37376 4.10127H9.22134C9.14513 3.49367 8.45924 3.03797 7.92578 3.03797C7.46852 1.74684 6.4778 0.607595 4.8774 0.607595C4.72498 0.607595 4.49636 0.607595 4.26773 0.683544C3.81047 0.303797 3.277 0 2.51491 0C1.14314 0 0 1.13924 0 2.50633C0 3.41772 0.381047 4.02532 1.14314 4.55696V4.70886C1.14314 5.8481 2.36249 7.59494 4.19152 7.59494C4.19152 7.89873 4.57257 8.27848 4.95361 8.35443V8.50633H4.8774Z" fill="#64513D"/>
<path d="M24.2344 4.78491C23.5485 4.78491 23.0912 4.78491 22.4816 4.48111C21.6433 4.10136 21.2622 3.94946 20.5001 3.94946C19.5856 3.94946 18.8235 4.25326 18.1376 4.86086C17.3755 5.5444 17.1469 6.53174 16.8421 7.59503C16.6134 8.43048 16.3848 9.26592 15.7751 10.1014C15.3179 10.7849 14.9368 11.1647 13.8699 12.4558C12.4219 14.2026 11.6598 15.5697 10.3643 18.6836C10.5929 18.6836 10.8977 18.6077 11.2026 18.6077C11.355 18.6077 11.5074 18.6077 11.736 18.6077L11.8884 18.3039C12.5743 16.7849 13.5651 14.7343 14.9368 13.1393L15.3941 12.6077C16.7658 11.0128 17.6042 10.0254 18.1376 7.82288C18.29 7.06339 18.4425 6.37984 18.9759 5.8482C19.4332 5.31655 19.9666 5.0887 20.5763 5.0887C21.1098 5.0887 21.4908 5.2406 22.0243 5.46845C22.5578 5.6963 22.7102 5.6963 23.2436 5.6963C23.3961 5.6963 23.5485 5.6963 23.7009 5.6963L23.015 6.68364L24.0057 7.36718C22.7864 7.74693 22.1005 8.88617 21.8719 9.49377C21.7957 9.56972 21.7957 9.64567 21.7957 9.72162C21.7957 9.79756 21.8719 9.87351 21.9481 9.87351C22.1005 9.87351 22.1767 9.79756 22.3291 9.56972C22.9388 8.81022 23.3961 8.35453 25.6061 7.67098L24.082 6.53174L25.2251 4.78491H24.2344Z" fill="#64513D"/>
<path d="M31.7031 16.0254H27.3592L26.8257 17.0127H32.1603L31.7031 16.0254Z" fill="#64513D"/>
<path d="M39.705 24.228C39.4002 24.0761 39.0191 23.7723 38.7905 23.6204C37.7236 24.0761 36.6566 24.9875 35.7421 25.9748C33.6845 28.1014 33.8369 29.3166 31.703 30.152C31.1695 30.3799 30.4837 30.6077 29.6454 30.7596C29.1119 29.2406 27.8925 27.6457 26.5208 27.6457C25.6063 27.6457 24.5393 28.1014 23.2438 28.709C21.7958 29.3166 20.424 30.0761 20.043 30.3799L20.5764 31.1393C21.0337 30.9115 22.253 30.3039 23.4724 29.7723C24.5393 29.3166 25.53 28.9368 26.2159 28.9368C27.2829 28.9368 27.9687 30.152 28.3498 31.1393C26.978 31.4431 24.6917 31.5191 24.0059 31.5191C23.701 31.5191 23.5486 31.595 23.4724 31.671C23.3962 31.7469 23.32 31.8988 23.2438 32.1267L23.1676 32.5064H23.9296C27.8163 32.5064 31.3982 31.8988 33.7607 30.4558C34.0655 30.5318 34.3703 30.6077 34.7514 30.6077C36.1232 30.6077 37.4949 29.8482 38.3332 29.2406C38.6381 29.0128 38.7143 28.7849 38.7143 28.5571C38.7143 28.4811 38.7143 28.3292 38.7143 28.2533L38.6381 27.8735C37.4187 28.8609 36.3518 29.5444 35.0562 29.5444C34.8276 29.5444 34.6752 29.5444 34.5228 29.4685C35.8183 27.4178 36.9615 25.671 39.705 24.228Z" fill="#64513D"/>
<path d="M31.4744 26.5824C30.5599 26.5824 30.7123 25.0634 30.6361 23.9241C27.5115 24.2279 25.6063 25.1393 23.4724 26.2786L23.701 27.19C25.6063 26.0507 27.5115 25.3672 29.493 25.2153C29.493 26.3545 30.0264 27.8735 31.322 27.8735C32.6937 27.8735 34.3704 25.7469 36.3518 23.1647L36.8853 22.4811C36.5804 22.2533 36.3518 22.1014 36.1232 21.9495C34.0655 24.4558 32.3127 26.5824 31.4744 26.5824Z" fill="#64513D"/>
<path d="M23.7774 22.6329C24.6919 22.1772 26.0636 22.0253 26.8257 22.0253C27.5116 22.0253 28.1213 22.1013 28.731 22.1772C29.4169 22.2532 30.2552 22.4051 31.0935 22.4051C32.9987 22.4051 34.9039 21.3418 35.2088 21.1899C34.9801 20.962 34.6753 20.7342 34.5229 20.5063C33.9132 20.8101 32.4652 21.2658 31.0935 21.2658C30.4076 21.2658 29.7979 21.1899 29.1882 21.1139C28.3499 21.038 27.5878 20.8861 26.9782 20.8861C25.9112 20.8861 24.5395 20.962 23.2439 21.8734L23.7774 22.6329Z" fill="#64513D"/>
<path d="M9.83081 25.6709L9.90702 26.1266C9.90702 26.2785 9.98323 26.4304 10.1356 26.5063C10.2881 26.5823 10.5929 26.5823 11.0502 26.5823C12.1933 26.5823 13.1078 26.4304 13.5651 26.2785C14.8606 28.1772 16.6134 28.8607 18.2901 28.8607C19.738 28.8607 21.186 28.3291 22.5578 27.5696L22.3292 26.6582C20.9574 27.4177 19.5856 27.9494 18.2901 27.9494C16.9183 27.9494 15.6227 27.3418 14.632 25.8228C14.1747 25.1392 13.8699 24.3797 13.4127 23.6202C12.9554 22.7848 12.3457 22.3291 11.4312 22.3291C10.5929 22.3291 9.7546 22.7088 8.84009 23.0886L8.9163 23.3164C8.99251 23.6202 9.14492 23.8481 9.44976 23.8481C9.60218 23.8481 9.7546 23.7721 9.7546 23.7721C10.2881 23.6202 10.5929 23.4683 11.1264 23.4683C11.8885 23.4683 12.2695 23.924 12.803 25.0633L13.0316 25.443C12.4981 25.5949 11.2026 25.7468 10.2881 25.7468H9.83081V25.6709Z" fill="#64513D"/>
<path d="M21.948 21.7976L21.3383 21.0381C19.0521 21.9495 16.4609 23.3166 16.4609 24.8356C16.4609 25.671 17.0706 26.3545 18.4424 26.3545C20.5 26.3545 22.6339 25.2912 24.3867 24.3799L24.1581 24.0761C24.0057 23.8482 23.8533 23.7723 23.7008 23.7723C23.5484 23.7723 23.4722 23.8482 23.3198 23.8482C21.7956 24.6077 20.1952 25.2912 18.671 25.2912C17.8327 25.2912 17.6041 24.9875 17.6041 24.6837C17.6803 23.6204 20.5 22.4052 21.948 21.7976Z" fill="#64513D"/>
<path d="M23.8535 12.6077C23.701 12.4558 23.4724 12.4558 23.2438 12.4558C22.7865 12.4558 22.6341 12.6837 22.5579 12.9875C22.4817 13.1394 22.4817 13.2153 22.4817 13.3672C22.4817 13.747 22.6341 13.9748 22.9389 13.9748C23.32 13.9748 24.0821 13.4432 24.0821 12.9875C24.0821 12.8356 24.0059 12.7596 23.8535 12.6077Z" fill="#64513D"/>
<path d="M0.0762094 35.6203H0.457256C1.21935 35.6203 1.29556 35.1646 1.29556 34.7089C1.29556 34.4051 1.29556 34.1013 1.29556 33.7216C1.29556 32.8862 1.37177 32.1267 2.74354 31.5191C3.277 31.2912 6.02054 30.152 8.0782 29.3165C8.68787 29.0887 9.22134 28.8608 9.83101 28.8608C10.5169 28.8608 11.3552 29.1646 12.3459 29.7722C13.1842 30.2279 14.0987 30.9115 14.7846 31.671L15.6229 30.9874C14.8608 30.076 13.7939 29.3165 12.8032 28.7089C11.7362 28.1013 10.8217 27.7216 10.0596 27.7216C9.7548 27.7216 9.44997 27.7975 9.22134 27.8735C8.9165 27.9494 8.68787 28.0254 8.38304 28.0254C8.00199 28.0254 7.69715 27.9494 7.23989 27.4178C7.08748 27.1899 5.94433 25.9748 5.71571 25.595C5.56329 25.4431 5.41087 25.0634 5.41087 24.6836C5.41087 24.5317 5.41087 24.3039 5.56329 24.152C6.55401 24.9115 7.69715 25.3672 9.14513 25.5191L8.9165 24.5317C6.85885 24.0001 4.64877 22.1773 4.64877 20.9621C4.64877 20.7343 4.72498 20.5064 4.80119 20.3545C5.6395 21.114 7.46852 21.8735 8.53545 21.8735C9.06892 21.8735 9.52618 21.7216 9.98343 21.4937C10.3645 21.3418 10.8217 21.1899 11.3552 21.1899C12.6508 21.1899 14.3274 21.7975 15.7753 22.4051C15.8516 22.4051 15.9278 22.4811 16.0802 22.4811C16.3088 22.4811 16.4612 22.4051 16.6137 22.1773L16.7661 21.8735C15.1657 20.9621 12.6508 19.9748 11.3552 19.9748C10.7455 19.9748 10.2883 20.1267 9.90722 20.2786C9.44997 20.4305 9.06892 20.6583 8.61166 20.6583C7.54473 20.6583 4.8774 19.595 4.8774 18.6077C4.8774 17.4684 9.14513 17.0127 9.60239 17.0127L10.0596 16.0254C7.01127 16.0254 3.277 17.0887 3.277 18.5317C3.277 18.9115 3.50563 19.1393 3.50563 19.5191C3.50563 20.0507 3.277 20.3545 3.277 20.9621C3.277 21.3418 3.50563 21.7975 3.73426 22.2532C4.0391 22.7089 4.34394 23.0127 4.34394 23.3925C4.34394 23.6963 4.19152 24.0001 4.19152 24.6836C4.19152 26.0507 4.95361 26.8861 6.55401 28.557L6.85885 28.8608C5.56329 29.3925 3.2008 30.3798 2.66733 30.6077C0.457256 31.2153 0 32.2026 0 33.7216C0 34.3292 0 35.0127 0.0762094 35.6203Z" fill="#64513D"/>
<path d="M5.94424 4.55697C5.41078 4.10127 4.72489 3.72152 3.9628 3.41772H3.81038C3.73417 3.41772 3.65796 3.49367 3.65796 3.56962C3.65796 3.64557 3.65796 3.64557 3.73417 3.79747C4.64868 4.55697 6.4015 6 6.93496 6.4557L7.39222 6C6.93496 5.39241 6.47771 4.93671 5.94424 4.55697Z" fill="#64513D"/>
<path d="M62.8727 32.3543H62.5679V32.886H62.8727C63.1013 32.886 63.2537 32.886 63.2537 32.5822C63.2537 32.3543 63.1013 32.3543 62.8727 32.3543ZM63.3299 34.0252C63.2537 33.7214 63.4062 33.1898 62.9489 33.1898H62.6441V34.0252H62.1868V32.0505H63.1013C63.4824 32.0505 63.7872 32.1265 63.7872 32.5822C63.7872 32.886 63.6348 33.0379 63.3299 33.0379C63.8634 33.1138 63.711 33.6455 63.8634 34.0252H63.3299ZM62.9489 31.5189C62.1106 31.5189 61.4247 32.2024 61.4247 33.0379C61.4247 33.8733 62.1106 34.5569 62.9489 34.5569C63.7872 34.5569 64.4731 33.8733 64.4731 33.0379C64.4731 32.2024 63.7872 31.5189 62.9489 31.5189ZM62.9489 34.8607C61.9582 34.8607 61.1199 34.0252 61.1199 33.0379C61.1199 32.0505 61.9582 31.2151 62.9489 31.2151C63.9396 31.2151 64.7779 32.0505 64.7779 33.0379C64.7779 34.0252 63.9396 34.8607 62.9489 34.8607Z" fill="#64513D"/>
</svg>
