<svg width="21" height="20" viewBox="0 0 21 20" fill="none" xmlns="http://www.w3.org/2000/svg">
<path d="M15.75 2H19.75C20.0152 2 20.2696 2.10536 20.4571 2.29289C20.6446 2.48043 20.75 2.73478 20.75 3V19C20.75 19.2652 20.6446 19.5196 20.4571 19.7071C20.2696 19.8946 20.0152 20 19.75 20H1.75C1.48478 20 1.23043 19.8946 1.04289 19.7071C0.855357 19.5196 0.75 19.2652 0.75 19V3C0.75 2.73478 0.855357 2.48043 1.04289 2.29289C1.23043 2.10536 1.48478 2 1.75 2H5.75V0H7.75V2H13.75V0H15.75V2ZM13.75 4H7.75V6H5.75V4H2.75V8H18.75V4H15.75V6H13.75V4ZM18.75 10H2.75V18H18.75V10Z" fill="#2564BA"/>
</svg>
