<svg width="20" height="20" viewBox="0 0 20 20" fill="none" xmlns="http://www.w3.org/2000/svg">
<path d="M12.95 9.40845L8.23334 4.70011C8.15587 4.622 8.0637 4.56001 7.96215 4.5177C7.8606 4.4754 7.75168 4.45361 7.64167 4.45361C7.53166 4.45361 7.42274 4.4754 7.32119 4.5177C7.21964 4.56001 7.12747 4.622 7.05001 4.70011C6.8948 4.85625 6.80768 5.06746 6.80768 5.28761C6.80768 5.50777 6.8948 5.71898 7.05001 5.87511L11.175 10.0418L7.05001 14.1668C6.8948 14.3229 6.80768 14.5341 6.80768 14.7543C6.80768 14.9744 6.8948 15.1856 7.05001 15.3418C7.12718 15.4205 7.21922 15.4832 7.32078 15.5261C7.42235 15.569 7.53142 15.5913 7.64167 15.5918C7.75193 15.5913 7.861 15.569 7.96256 15.5261C8.06412 15.4832 8.15616 15.4205 8.23334 15.3418L12.95 10.6334C13.0346 10.5554 13.1021 10.4607 13.1483 10.3553C13.1944 10.2499 13.2183 10.136 13.2183 10.0209C13.2183 9.90586 13.1944 9.79202 13.1483 9.68661C13.1021 9.58119 13.0346 9.48648 12.95 9.40845Z" fill="#121212"/>
</svg>
