<svg width="20" height="17" viewBox="0 0 20 17" fill="none" xmlns="http://www.w3.org/2000/svg">
<path d="M0.75 1.875C0.75 1.14453 1.35156 0.5 2.125 0.5H18.625C19.3555 0.5 20 1.14453 20 1.875C20 2.64844 19.3555 3.25 18.625 3.25H2.125C1.35156 3.25 0.75 2.64844 0.75 1.875ZM0.75 8.75C0.75 8.01953 1.35156 7.375 2.125 7.375H18.625C19.3555 7.375 20 8.01953 20 8.75C20 9.52344 19.3555 10.125 18.625 10.125H2.125C1.35156 10.125 0.75 9.52344 0.75 8.75ZM20 15.625C20 16.3984 19.3555 17 18.625 17H2.125C1.35156 17 0.75 16.3984 0.75 15.625C0.75 14.8945 1.35156 14.25 2.125 14.25H18.625C19.3555 14.25 20 14.8945 20 15.625Z" fill="#BBD3E7"/>
</svg>
